<?xml version="1.0" encoding="utf-8"?>
<!-- Generator: Adobe Illustrator 16.0.0, SVG Export Plug-In . SVG Version: 6.00 Build 0)  -->
<!DOCTYPE svg PUBLIC "-//W3C//DTD SVG 1.1//EN" "http://www.w3.org/Graphics/SVG/1.1/DTD/svg11.dtd">
<svg version="1.1" id="Layer_5" xmlns="http://www.w3.org/2000/svg" xmlns:xlink="http://www.w3.org/1999/xlink" x="0px" y="0px"
	 width="84.018px" height="93.891px" viewBox="0 0 84.018 93.891" enable-background="new 0 0 84.018 93.891" xml:space="preserve">
<path fill-rule="evenodd" clip-rule="evenodd" d="M42.5,80.557c-19.423,0-35.167-15.744-35.167-35.167
	c0-19.422,15.744-35.167,35.167-35.167c19.421,0,35.167,15.745,35.167,35.167C77.667,64.812,61.921,80.557,42.5,80.557z
	 M58.625,35.136c0.662-0.661,0.662-1.733,0-2.394l-3.591-3.589c-0.66-0.663-1.732-0.663-2.394,0L42.467,39.324L32.293,29.153
	c-0.66-0.663-1.732-0.663-2.394,0l-3.59,3.589c-0.662,0.66-0.662,1.732,0,2.394l10.173,10.173L26.31,55.483
	c-0.662,0.66-0.662,1.732,0,2.395l3.59,3.589c0.661,0.66,1.733,0.66,2.394,0l10.174-10.174L52.64,61.468
	c0.662,0.66,1.733,0.66,2.394,0l3.591-3.589c0.662-0.663,0.662-1.735,0-2.395L48.452,45.309L58.625,35.136z"/>
</svg>
