<?xml version="1.0" encoding="utf-8"?>
<!-- Generator: Adobe Illustrator 16.0.0, SVG Export Plug-In . SVG Version: 6.00 Build 0)  -->
<!DOCTYPE svg PUBLIC "-//W3C//DTD SVG 1.1//EN" "http://www.w3.org/Graphics/SVG/1.1/DTD/svg11.dtd">
<svg version="1.1" id="Layer_1" xmlns="http://www.w3.org/2000/svg" xmlns:xlink="http://www.w3.org/1999/xlink" x="0px" y="0px"
	 width="84.018px" height="93.891px" viewBox="0 0 84.018 93.891" enable-background="new 0 0 84.018 93.891" xml:space="preserve">
<g id="Layer_3">
	<g>
		<path d="M67,61.945c-3.438,0-6.593,1.168-9.122,3.112L31.782,49.4C31.914,48.6,32,47.783,32,46.945s-0.086-1.653-0.218-2.455
			l26.096-15.657c2.529,1.944,5.686,3.112,9.122,3.112c8.283,0,15-6.717,15-15c0-8.282-6.717-15-15-15s-15,6.718-15,15
			c0,0.838,0.086,1.654,0.218,2.455L26.122,35.058c-2.529-1.943-5.687-3.112-9.122-3.112c-8.283,0-15,6.718-15,15
			c0,8.283,6.717,15,15,15c3.437,0,6.593-1.167,9.122-3.112L52.218,74.49C52.086,75.291,52,76.106,52,76.945c0,8.283,6.717,15,15,15
			s15-6.717,15-15C82,68.662,75.283,61.945,67,61.945z"/>
	</g>
</g>
</svg>
