<?xml version="1.0" encoding="utf-8"?>
<!-- Generator: Adobe Illustrator 16.0.0, SVG Export Plug-In . SVG Version: 6.00 Build 0)  -->
<!DOCTYPE svg PUBLIC "-//W3C//DTD SVG 1.1//EN" "http://www.w3.org/Graphics/SVG/1.1/DTD/svg11.dtd">
<svg version="1.1" id="Layer_1" xmlns="http://www.w3.org/2000/svg" xmlns:xlink="http://www.w3.org/1999/xlink" x="0px" y="0px"
	 width="84.018px" height="93.891px" viewBox="0 0 84.018 93.891" enable-background="new 0 0 84.018 93.891" xml:space="preserve">
<g id="Layer_2">
	<path d="M60.241,33.814c-0.659-1.776,17.698-18.172,6.989-31.457c-2.507-3.108-11.006,14.875-23.077,23.019
		C37.495,29.867,22,39.429,22,44.711v34.202C22,85.272,46.568,92,65.246,92C72.083,92,82,49.124,82,42.312
		C82,35.476,60.9,35.592,60.241,33.814z M17,34.29c-3.288,0-15,2-15,15.607v24.24c0,13.609,11.712,15.109,15,15.109
		c3.287,0-5-2.863-5-11.297V46.086C12,37.244,20.287,34.29,17,34.29z"/>
</g>
</svg>
